PathFileType	4	(X/Y/Z)	/Users/itak/Documents/Research/Walk-IL/dataset/trc/00130_00007.trc
DataRate	CameraRate	NumFrames	NumMarkers	Units	OrigDataRate	OrigDataStartFrame	OrigNumFrames
100.000000	100.000000	4	55	mm	100.000000	0	744
Frame#	Time	RPSI			LPSI			L3			STRN			T10			C7			CLAV			RBAK			LBAK			LSHO			LUPA			LAEL			LAOL			LWTS			LWPS			LFRA			LIFD			LHPS			LHTS			RSHO			RUPA			RAEL			RAOL			RWTS			RWPS			RFRA			RIFD			RHTS			RHPS			RBHD			LFHD			RFHD			LBHD			LHIP			RHIP			RASI			LASI			LKNE			LTHI			LANK			LTIP			LTOE			LMT1			LMT5			LHEE			RKNE			RTHI			RANK			RTIP			RTOE			RMT1			RMT5			RHEE			*53			*54			
		X1	Y1	Z1	X2	Y2	Z2	X3	Y3	Z3	X4	Y4	Z4	X5	Y5	Z5	X6	Y6	Z6	X7	Y7	Z7	X8	Y8	Z8	X9	Y9	Z9	X10	Y10	Z10	X11	Y11	Z11	X12	Y12	Z12	X13	Y13	Z13	X14	Y14	Z14	X15	Y15	Z15	X16	Y16	Z16	X17	Y17	Z17	X18	Y18	Z18	X19	Y19	Z19	X20	Y20	Z20	X21	Y21	Z21	X22	Y22	Z22	X23	Y23	Z23	X24	Y24	Z24	X25	Y25	Z25	X26	Y26	Z26	X27	Y27	Z27	X28	Y28	Z28	X29	Y29	Z29	X30	Y30	Z30	X31	Y31	Z31	X32	Y32	Z32	X33	Y33	Z33	X34	Y34	Z34	X35	Y35	Z35	X36	Y36	Z36	X37	Y37	Z37	X38	Y38	Z38	X39	Y39	Z39	X40	Y40	Z40	X41	Y41	Z41	X42	Y42	Z42	X43	Y43	Z43	X44	Y44	Z44	X45	Y45	Z45	X46	Y46	Z46	X47	Y47	Z47	X48	Y48	Z48	X49	Y49	Z49	X50	Y50	Z50	X51	Y51	Z51	X52	Y52	Z52	X53	Y53	Z53	X54	Y54	Z54	X55	Y55	Z55	

1	0	268.79931640625	1132.063598632812	1130.441040039062	252.0720062255859	1133.2939453125	1263.723876953125	267.5867919921875	1164.423950195312	1200.541259765625	55.43333435058594	1367.952392578125	1171.899047851562	308.2044677734375	1313.81103515625	1211.200805664062	277.043212890625	1605.56884765625	1226.212280273438	94.32136535644531	1501.973999023438	1183.13525390625	340.7558288574219	1421.43505859375	1144.406860351562	264.9580078125	1584.56005859375	1326.443237304688	168.1870880126953	1572.466552734375	1378.5908203125	175.4008026123047	1440.746215820312	1451.192749023438	157.6091766357422	1221.929809570312	1469.572875976562	233.027587890625	1209.094482421875	1425.610229492188	60.10500717163086	968.2510375976562	1399.256713867188	132.2466125488281	940.8770141601562	1443.433349609375	136.5952911376953	1105.015502929688	1467.801025390625	29.059814453125	789.36181640625	1353.257202148438	102.6628952026367	865.2466430664062	1433.895629882812	39.92830657958984	878.1942138671875	1403.928955078125	253.5202789306641	1591.169677734375	1037.352294921875	282.004638671875	1519.134399414062	975.9588012695312	294.8240051269531	1224.633544921875	952.2141723632812	287.2198486328125	1222.431030273438	1048.358764648438	143.7025299072266	986.7771606445312	938.1734619140625	222.614990234375	967.130615234375	922.4178466796875	272.3826904296875	1151.957885742188	932.4696044921875	108.2407531738281	792.8408203125	946.5869140625	111.3669815063477	879.2513427734375	925.2313232421875	183.4370422363281	869.4276733398438	910.0270385742188	258.3310852050781	1784.63330078125	1166.399536132812	46.06827163696289	1837.786010742188	1187.982055664062	114.9730911254883	1841.054321289062	1078.390625	193.560791015625	1785.654296875	1284.922973632812	147.2195587158203	1044.054931640625	1355.929321289062	157.126220703125	1035.095581054688	995.9389038085938	71.49754333496094	1110.151611328125	1037.366943359375	44.39616012573242	1108.041259765625	1303.518798828125	139.4413452148438	542.1077880859375	1319.058959960938	153.6756591796875	689.3646850585938	1351.204345703125	254.3118286132812	42.48688125610352	1314.277587890625	238.5328979492188	296.4352722167969	1352.73095703125	29.63045501708984	41.52944946289062	1229.5087890625	114.2891387939453	45.38330078125	1205.562255859375	127.1083526611328	41.04639434814453	1323.217529296875	329.4205932617188	43.9661750793457	1261.021728515625	178.8400268554688	543.110107421875	1037.346069335938	145.9205627441406	822.0792236328125	1003.600708007812	277.154052734375	33.67348098754883	1071.81591796875	207.7957611083984	411.87060546875	1031.647705078125	41.86461639404297	48.71466064453125	1113.494140625	101.2567443847656	37.83787536621094	1158.73779296875	143.2466583251953	43.54540634155273	1043.31982421875	332.0229797363281	35.64545059204102	1123.349609375	15.84409427642822	799.4697875976562	1387.67236328125	nan	nan	nan	
2	0.01	268.7959899902344	1132.053100585938	1130.399536132812	252.1067504882812	1133.293823242188	1263.666625976562	267.5751037597656	1164.411987304688	1200.5087890625	55.46232604980469	1368.014892578125	1171.8349609375	308.3379516601562	1313.765625	1211.123291015625	277.1943359375	1605.544067382812	1226.1259765625	94.374755859375	1501.97314453125	1183.078979492188	340.7533264160156	1421.373657226562	1144.312133789062	265.1004028320312	1584.476196289062	1326.402954101562	168.3568725585938	1572.400146484375	1378.550048828125	174.6429290771484	1440.677856445312	1451.467041015625	157.0635375976562	1221.753051757812	1469.359619140625	232.50390625	1208.58984375	1425.355346679688	59.30941772460938	968.5572509765625	1398.567016601562	130.7221221923828	941.0780639648438	1442.509887695312	135.8811645507812	1104.92431640625	1467.214111328125	28.10713768005371	789.7771606445312	1352.7900390625	101.1345291137695	865.3343505859375	1432.869750976562	38.66070938110352	878.4537963867188	1402.8173828125	253.5755920410156	1591.19873046875	1037.28857421875	282.0671691894531	1519.145751953125	975.884521484375	294.7391967773438	1224.6298828125	952.070068359375	287.0882263183594	1222.372314453125	1048.166015625	143.1986083984375	986.9474487304688	938.0299072265625	222.0227966308594	967.2100830078125	922.2556762695312	272.1542358398438	1151.958251953125	932.262939453125	107.3536376953125	793.0130004882812	946.3558349609375	110.7178726196289	879.473876953125	925.09375	182.8493804931641	869.5322265625	909.8985595703125	258.7042846679688	1784.467529296875	1166.511352539062	46.49301910400391	1837.95361328125	1188.116455078125	115.30859375	1841.20458984375	1078.595336914062	193.8826446533203	1785.545654296875	1285.065063476562	147.1201019287109	1044.054809570312	1355.90576171875	157.0735931396484	1035.104125976562	995.9097290039062	71.47190856933594	1110.209350585938	1037.32763671875	44.44887542724609	1108.033935546875	1303.478759765625	139.4029693603516	542.1431884765625	1319.015747070312	153.6685180664062	689.4152221679688	1351.17626953125	254.3961791992188	42.53139114379883	1314.26025390625	238.4967803955078	296.4227600097656	1352.695068359375	29.63458633422852	41.53126525878906	1229.477416992188	114.4280242919922	45.519287109375	1205.596069335938	127.0758895874023	41.08807373046875	1323.197387695312	329.4205932617188	43.9661750793457	1261.021728515625	178.8400268554688	543.110107421875	1037.346069335938	145.8632507324219	822.0834350585938	1003.601684570312	277.1656494140625	33.68106460571289	1071.808837890625	207.8804626464844	411.8975524902344	1031.616333007812	41.88238525390625	48.71288681030273	1113.49951171875	101.2153778076172	37.84212493896484	1158.744873046875	143.2846527099609	43.53633117675781	1043.360595703125	331.9791870117188	35.63056182861328	1123.401245117188	13.58585548400879	799.6862182617188	1386.146484375	nan	nan	nan	
3	0.02	268.811279296875	1132.016723632812	1130.350830078125	252.1505279541016	1133.281127929688	1263.601806640625	267.5884094238281	1164.381713867188	1200.4501953125	55.48904037475586	1368.055297851562	1171.785888671875	308.4915161132812	1313.711181640625	1211.022216796875	277.3536071777344	1605.504516601562	1226.085815429688	94.44662475585938	1502.05029296875	1183.0556640625	340.8097534179688	1421.30224609375	1144.1689453125	265.2925720214844	1584.426513671875	1326.339599609375	168.4832305908203	1572.382446289062	1378.544799804688	174.6553802490234	1440.577270507812	1451.395629882812	156.6596069335938	1221.589111328125	1469.162475585938	232.0641479492188	1208.379028320312	1425.052612304688	58.34945297241211	968.8365478515625	1397.679077148438	129.5592041015625	941.08154296875	1441.52099609375	135.0882110595703	1104.764770507812	1466.60302734375	26.73136138916016	790.0824584960938	1351.745483398438	99.76393890380859	865.4743041992188	1431.818359375	37.26975631713867	878.7454223632812	1401.658935546875	253.6475372314453	1591.210205078125	1037.224731445312	282.0862121582031	1519.170043945312	975.813720703125	294.5333862304688	1224.603759765625	951.9412841796875	287.0880432128906	1222.363159179688	1047.985961914062	142.6257781982422	987.0808715820312	937.9781494140625	221.5482177734375	967.2733764648438	922.080078125	271.854248046875	1151.9541015625	932.1549072265625	106.6156158447266	793.1229248046875	946.2546997070312	110.3154144287109	879.6865844726562	925.1983642578125	182.0270690917969	869.6143798828125	909.730712890625	258.9890441894531	1784.33056640625	1166.481079101562	46.95888900756836	1838.099975585938	1188.456420898438	115.6109161376953	1841.335815429688	1078.826416015625	194.3216247558594	1785.471313476562	1285.116577148438	147.0556182861328	1044.12060546875	1355.935180664062	157.0890655517578	1035.098266601562	995.9012451171875	71.45870971679688	1110.205688476562	1037.316772460938	44.46339797973633	1108.032348632812	1303.467407226562	139.3799896240234	542.1150512695312	1319.021240234375	153.7109222412109	689.4178466796875	1351.111694335938	254.3798980712891	42.5067138671875	1314.242309570312	238.4832458496094	296.4175720214844	1352.69091796875	29.64964485168457	41.53713607788086	1229.486694335938	114.4143295288086	45.50722503662109	1205.602172851562	127.0632400512695	41.07568740844727	1323.187744140625	329.409912109375	43.94851303100586	1261.026123046875	178.8266906738281	543.10791015625	1037.309936523438	145.7144165039062	822.068603515625	1003.580871582031	277.1564025878906	33.64933776855469	1071.79541015625	207.8696136474609	411.8953247070312	1031.579345703125	41.88490295410156	48.74749755859375	1113.4775390625	101.2317123413086	37.83448028564453	1158.698120117188	143.2245788574219	43.54748153686523	1043.377197265625	332.0154418945312	35.64917373657227	1123.349487304688	12.78866386413574	800.4056396484375	1385.1796875	nan	nan	nan	
4	0.03	268.8076782226562	1132.003295898438	1130.308471679688	252.2097778320312	1133.2412109375	1263.53076171875	267.5910339355469	1164.377563476562	1200.39404296875	55.5704460144043	1368.099975585938	1171.654296875	308.5766906738281	1313.659790039062	1210.942993164062	277.5711364746094	1605.457275390625	1226.016845703125	94.53849029541016	1502.0517578125	1183.02978515625	340.8921813964844	1421.271728515625	1144.053833007812	265.5537414550781	1584.35107421875	1326.286743164062	168.6264190673828	1572.305908203125	1378.556640625	174.7575073242188	1440.444946289062	1451.223022460938	156.2270660400391	1221.552368164062	1468.482055664062	231.6641540527344	1208.18505859375	1424.769287109375	56.95675659179688	969.0860595703125	1396.401245117188	128.8628082275391	940.7936401367188	1440.076293945312	134.2707366943359	1104.657348632812	1465.978637695312	25.19972038269043	790.1785278320312	1350.530883789062	98.50602722167969	865.5465698242188	1430.7958984375	36.02636337280273	878.847900390625	1400.564208984375	253.7316741943359	1591.231567382812	1037.153686523438	282.1592407226562	1519.155029296875	975.7434692382812	294.4038696289062	1224.593139648438	951.800537109375	287.0412292480469	1222.338500976562	1047.86181640625	142.1952972412109	987.21630859375	937.9537963867188	221.0485992431641	967.348876953125	921.939208984375	271.6470947265625	1151.953125	932.0650634765625	105.9917602539062	793.24365234375	946.2677001953125	110.0221252441406	879.857421875	925.2813110351562	181.4031066894531	869.744384765625	909.5988159179688	259.2777709960938	1784.236694335938	1166.4833984375	47.35995864868164	1838.203735351562	1188.651245117188	116.0144348144531	1841.427612304688	1078.959228515625	194.7383575439453	1785.3876953125	1285.19482421875	146.9908447265625	1044.131225585938	1355.948608398438	157.0679931640625	1035.171020507812	995.8280029296875	71.44673919677734	1110.2109375	1037.308471679688	44.50576019287109	1108.039672851562	1303.432861328125	139.3576965332031	542.1309814453125	1318.973510742188	153.6929016113281	689.409912109375	1351.08740234375	254.3964538574219	42.45230865478516	1314.188720703125	238.439453125	296.4410095214844	1352.651977539062	29.62308120727539	41.53009796142578	1229.482543945312	114.4356918334961	45.52531433105469	1205.594116210938	127.0634536743164	41.07434844970703	1323.187744140625	329.4052429199219	43.9524040222168	1261.009643554688	178.8143157958984	543.0987548828125	1037.30810546875	145.7378692626953	822.1095581054688	1003.552978515625	277.1841125488281	33.65493011474609	1071.790893554688	207.9076690673828	411.9049987792969	1031.562133789062	41.92924118041992	48.68598175048828	1113.546752929688	101.2420883178711	37.8358154296875	1158.7080078125	143.2178039550781	43.57421112060547	1043.38720703125	332.0289916992188	35.66944122314453	1123.352172851562	11.57426452636719	799.9226684570312	1384.053588867188	nan	nan	nan	
